<svg id="Capa_1" enable-background="new 0 0 512 512" height="512" viewBox="0 0 512 512" width="512" xmlns="http://www.w3.org/2000/svg" xmlns:xlink="http://www.w3.org/1999/xlink"><linearGradient id="SVGID_1_" gradientUnits="userSpaceOnUse" x1="256" x2="256" y1="470" y2="128"><stop offset="0" stop-color="#fd3a84"/><stop offset="1" stop-color="#ffa68d"/></linearGradient><linearGradient id="SVGID_2_" gradientUnits="userSpaceOnUse" x1="256" x2="256" y1="512" y2="0"><stop offset="0" stop-color="#ffc2cc"/><stop offset="1" stop-color="#fff2f4"/></linearGradient><g><g><g><path d="m467 151h-45l-26-23h-270l-36 23h-45c-24.813 0-45 20.187-45 45v181c0 8.284 6.716 15 15 15h75l27 78h279l26-78h75c8.284 0 15-6.716 15-15v-181c0-24.813-20.187-45-45-45z" fill="url(#SVGID_1_)"/></g></g><g><g><path d="m422 15c0-8.284-6.716-15-15-15h-302c-8.284 0-15 6.716-15 15v136h332zm-347 226c8.284 0 15-6.716 15-15s-6.716-15-15-15-15 6.716-15 15 6.716 15 15 15zm362 61h-362c-8.284 0-15 6.716-15 15s6.716 15 15 15h15v165c0 8.284 6.716 15 15 15h302c8.284 0 15-6.716 15-15v-165h15c8.284 0 15-6.716 15-15s-6.716-15-15-15zm-90 150h-182c-8.284 0-15-6.716-15-15s6.716-15 15-15h182c8.284 0 15 6.716 15 15s-6.716 15-15 15zm0-60h-182c-8.284 0-15-6.716-15-15s6.716-15 15-15h182c8.284 0 15 6.716 15 15s-6.716 15-15 15z" fill="url(#SVGID_2_)"/></g></g></g></svg>